<svg width="475" height="273" viewBox="0 0 475 273" fill="none" xmlns="http://www.w3.org/2000/svg">
<path d="M2.3 271L0 270.1V201.3C0 136.3 0.1 131.9 2 122.1C3.1 116.3 4.4 111.2 4.9 110.6C5.3 110 6.4 107.4 7.4 104.9C11.4 94.1 25.4 77 37.1 68.5C42.4 64.8 55.8 57 57 57C57.6 57 59.4 56.3 61.1 55.5C66.3 52.7 84.5 50 97.4 50C110.6 50 125.3 52.2 131.6 55.1C133.9 56.1 136.3 57 137.1 57C137.9 57 140.8 58.4 143.5 60C146.3 61.6 150.1 63.7 152 64.8C153.9 65.9 158.2 69.2 161.5 72.2C177.6 86.5 183.6 95.5 190.7 115.8C193.2 123.1 193.4 124.5 193.4 142.5C193.4 160.6 193.3 162 190.6 171C187.4 181.8 185.5 185.8 179.5 195C175.3 201.3 161.4 215.6 155.6 219.5C141.9 228.8 130 233.6 116 235.6C81.2 240.5 51.7 232.5 28.8 212L22 205.9V237.4C22 264.7 21.8 269.1 20.4 270.4C18.7 272.2 6.2 272.6 2.3 271ZM112.8 214.5C118.5 213.1 124.1 211.3 125.3 210.5C126.5 209.7 128 209 128.7 209C130.7 209 136.8 205 146.1 197.6C165.1 182.5 176 154.9 171.7 132.4C170.1 124.2 164.7 111 161 106.2C159.8 104.7 157.3 101.4 155.4 98.8C148 88.7 131.5 77.9 116.6 73.4C109.9 71.4 106.5 71 95.6 71C81.5 71 76.1 72.3 64 78.4C55.7 82.5 54.7 83.2 50.4 87.2C48.3 89.3 46.2 91 45.8 91C44.3 91 34 104.8 31 111C29.2 114.6 27.3 118.4 26.8 119.4C24.4 123.9 22 139.6 22 150.4C22 162 22.9 165.9 28.1 176.1C36.6 192.8 57.2 208.8 76.8 213.9C91.5 217.7 98.9 217.9 112.8 214.5Z" fill="white"/>
<path d="M193.8 236C192.3 235.1 192 233.4 192 226.6C192 217 192 217 200.4 217C203.3 217 208.8 216.1 212.6 214.9C226.7 210.8 234.8 205.4 240.6 196.7C242.1 194.4 244.1 191.3 245.2 189.8C247.5 186.4 250 176.8 250 171.5C250 166.3 246.9 154.7 244 149C242.7 146.2 234.5 137.1 223.1 125.5C212.8 115.1 203.1 104.3 201.4 101.5C198.6 96.6 198.5 96.2 198.5 81.9C198.5 67.5 198.5 67.3 201.4 63.2C205.3 57.5 209.8 54.3 217.2 52C224.5 49.7 236.7 49.3 239.4 51.3C241.4 52.8 242.5 59.4 241.6 64.4C241.1 67.2 240.3 68.1 238.2 68.6C228 70.8 223.1 73.8 220.1 79.8C219.1 81.6 219.2 83.1 220.5 87.1C222.3 92.5 230.8 101.8 240.3 108.9C254.8 119.6 266.4 138.3 269.9 156.6C271.4 164.6 271.2 180.1 269.6 187.5C268.4 192.9 265.6 199.5 261.4 207.1C260.6 208.6 256.2 213.4 251.6 217.7C242.6 226.3 229.9 233.5 221 235.2C213.6 236.7 195.7 237.2 193.8 236Z" fill="white"/>
<path d="M358 235.5C320.7 229.7 288 197.6 282.4 161.5C280.5 149.3 280.3 4.09998 282.2 2.19998C283.9 0.499979 300.4 0.599979 301.9 2.29998C302.6 3.29998 303.1 15.9 303.2 42.7L303.5 81.8L310.2 75.7C329.8 57.5 349.8 49.9 378 50C391.7 50.1 409.6 52.6 414.7 55.3C416.5 56.2 418.3 57 418.8 57C421.1 57 436.2 66.4 442.9 72.1C457.8 84.7 470.4 104.6 473.2 120C475.1 130.6 475.3 153.2 473.5 163.6C471.9 173 471 175.9 466.6 185C458.7 201.6 441.5 218.7 423.5 227.8C407.4 235.9 380.5 239.1 358 235.5ZM391.8 214C409.8 210 419.6 204.5 433 191.1C455.3 168.6 460.1 138.9 445.8 111.6C439 98.7 424.7 85.1 410.7 78.3C399.3 72.7 391.4 71 377 71C364.5 71 362.8 71.2 355.1 74C350.4 75.6 346.2 77.4 345.6 78C345.1 78.5 344 79 343.3 79C342.7 79 340.4 80.1 338.3 81.5C336.2 82.9 333.6 84.6 332.5 85.2C331.4 85.9 326.7 90.3 322 95C315.3 101.8 312.6 105.5 309.3 112.1C304.2 122.5 303 127 303 135.1C303.2 157.4 310.8 177.6 324.5 191.5C331.8 199 338.9 205 340.3 205C340.9 205 342.1 205.6 342.9 206.4C345.1 208.3 356.1 212.4 364 214.3C373.1 216.4 381.6 216.3 391.8 214Z" fill="white"/>
</svg>
